<?xml version="1.0" encoding="utf-8"?>
<!-- Generator: Adobe Illustrator 26.0.1, SVG Export Plug-In . SVG Version: 6.00 Build 0)  -->
<svg version="1.1" id="Layer_1" xmlns="http://www.w3.org/2000/svg" xmlns:xlink="http://www.w3.org/1999/xlink" x="0px" y="0px"
	 viewBox="0 0 1080 921.7" style="enable-background:new 0 0 1080 921.7;" xml:space="preserve">
<style type="text/css">
	.st0{fill:#00DBDE;}
	.st1{fill:#6E00E1;}
	.st2{fill:#BA58E3;}
</style>
<g>
	<path class="st0" d="M737.95,291.79L608.6,421.14c-37.16,37.16-97.41,37.16-134.57,0L344.68,291.79
		c-37.16-37.16-37.16-97.41,0-134.57L474.03,27.87c37.16-37.16,97.41-37.16,134.57,0l129.35,129.35
		C775.11,194.38,775.11,254.63,737.95,291.79z"/>
	<path class="st1" d="M1052.13,764.48L922.78,893.83c-37.16,37.16-97.41,37.16-134.57,0L658.86,764.48
		c-37.16-37.16-37.16-97.41,0-134.57l129.35-129.35c37.16-37.16,97.41-37.16,134.57,0l129.35,129.35
		C1089.29,667.07,1089.29,727.32,1052.13,764.48z"/>
	<path class="st2" d="M421.14,764.48L291.79,893.83c-37.16,37.16-97.41,37.16-134.57,0L27.87,764.48
		c-37.16-37.16-37.16-97.41,0-134.57l129.35-129.35c37.16-37.16,97.41-37.16,134.57,0l129.35,129.35
		C458.3,667.07,458.3,727.32,421.14,764.48z"/>
</g>
</svg>
